<?xml version="1.0" standalone="no"?>
<!DOCTYPE svg PUBLIC "-//W3C//DTD SVG 20010904//EN"
 "http://www.w3.org/TR/2001/REC-SVG-20010904/DTD/svg10.dtd">
<svg version="1.0" xmlns="http://www.w3.org/2000/svg"
 width="1280.000000pt" height="660.000000pt" viewBox="0 0 1280.000000 660.000000"
 preserveAspectRatio="xMidYMid meet">
<metadata>
Created by potrace 1.15, written by Peter Selinger 2001-2017
</metadata>
<g transform="translate(0.000000,660.000000) scale(0.100000,-0.100000)"
fill="#000000" stroke="none">
<path d="M7605 6499 c-573 -53 -1155 -289 -1615 -655 -121 -96 -402 -381 -491
-499 -305 -401 -504 -853 -579 -1310 l-11 -71 -130 -2 c-428 -6 -832 -152
-1184 -427 -44 -34 -89 -72 -99 -84 l-19 -21 -51 43 c-267 224 -576 337 -925
337 -479 0 -919 -233 -1176 -622 -21 -32 -41 -58 -44 -58 -4 0 -25 18 -46 40
-203 208 -560 243 -808 81 -299 -195 -417 -585 -281 -927 84 -211 274 -381
480 -430 180 -43 393 -1 532 103 18 14 35 23 37 22 2 -2 28 -53 59 -114 305
-601 1026 -895 1678 -685 51 16 93 28 93 27 1 -1 25 -47 54 -102 415 -787
1281 -1195 2155 -1014 287 60 589 204 826 396 97 78 261 248 329 341 30 39 58
72 63 72 4 0 43 -17 86 -39 784 -391 1725 -424 2535 -87 183 76 464 229 574
314 l33 24 124 -120 c417 -402 972 -567 1524 -452 492 103 924 435 1170 901
141 267 212 557 212 869 0 172 -18 314 -59 475 -201 775 -882 1323 -1648 1326
l-141 1 -17 76 c-44 202 -173 531 -288 737 -401 717 -1086 1244 -1882 1448
-169 44 -277 63 -455 82 -145 16 -466 18 -615 4z"/>
</g>
</svg>
