<?xml version="1.0" encoding="utf-8"?>
<!-- Generator: Adobe Illustrator 19.2.0, SVG Export Plug-In . SVG Version: 6.00 Build 0)  -->
<svg version="1.1" id="Layer_1" xmlns="http://www.w3.org/2000/svg" xmlns:xlink="http://www.w3.org/1999/xlink" x="0px" y="0px"
	 viewBox="0 0 1280 660" style="enable-background:new 0 0 1280 660;" xml:space="preserve">
<g transform="translate(0.000000,660.000000) scale(0.100000,-0.100000)">
	<path d="M4579.9,6495c-178-19-286-38-455-82c-796-204-1481-731-1882-1448c-115-206-244-535-288-737l-17-76l-141-1
		c-766-3-1447-551-1648-1326c-41-161-59-303-59-475c0-312,71-602,212-869c246-466,678-798,1170-901c552-115,1107,50,1524,452
		l124,120l33-24c110-85,391-238,574-314c810-337,1751-304,2535,87c43,22,82,39,86,39c5,0,33-33,63-72c68-93,232-263,329-341
		c237-192,539-336,826-396c874-181,1740,227,2155,1014c29,55,53,101,54,102c0,1,42-11,93-27c652-210,1373,84,1678,685
		c31,61,57,112,59,114c2,1,19-8,37-22c139-104,352-146,532-103c206,49,396,219,480,430c136,342,18,732-281,927
		c-248,162-605,127-808-81c-21-22-42-40-46-40c-3,0-23,26-44,58c-257,389-697,622-1176,622c-349,0-658-113-925-337l-51-43l-19,21
		c-10,12-55,50-99,84c-352,275-756,421-1184,427l-130,2l-11,71c-75,457-274,909-579,1310c-89,118-370,403-491,499
		c-460,366-1042,602-1615,655C5045.9,6513,4724.9,6511,4579.9,6495z"/>
</g>
</svg>
